<?xml version="1.0" ?><svg data-name="Layer 1" id="Layer_1" viewBox="0 0 64 64" xmlns="http://www.w3.org/2000/svg"><title/><path d="M13.77,36.78h-1a7.55,7.55,0,0,1-7.54-7.54v-5.7A7.55,7.55,0,0,1,12.77,16h1a7.55,7.55,0,0,1,7.54,7.54v5.7A7.55,7.55,0,0,1,13.77,36.78ZM12.77,18a5.55,5.55,0,0,0-5.54,5.54v5.7a5.55,5.55,0,0,0,5.54,5.54h1a5.55,5.55,0,0,0,5.54-5.54v-5.7A5.55,5.55,0,0,0,13.77,18Z"/><path d="M19.25,61.88H3a1,1,0,0,1-1-1V45.64a8.12,8.12,0,0,1,8.11-8.11h5.31A8.12,8.12,0,0,1,20,38.91l-1.12,1.66a6.09,6.09,0,0,0-3.42-1H10.11A6.12,6.12,0,0,0,4,45.64V59.88H19.25Z"/><path d="M32,28.73a9.47,9.47,0,0,1-9.46-9.46V13.63a9.46,9.46,0,0,1,18.92,0v5.64A9.47,9.47,0,0,1,32,28.73ZM32,6.17a7.46,7.46,0,0,0-7.46,7.46v5.64A7.46,7.46,0,0,0,32,26.73h0a7.47,7.47,0,0,0,7.46-7.46V13.63A7.47,7.47,0,0,0,32,6.17Z"/><path d="M45,61.88H19.2a1,1,0,0,1-1-1V41.8A11.45,11.45,0,0,1,29.64,30.36h4.92A11.45,11.45,0,0,1,46,41.8V60.88A1,1,0,0,1,45,61.88Zm-24.8-2H44V41.8a9.44,9.44,0,0,0-9.44-9.44H29.64A9.45,9.45,0,0,0,20.2,41.8Z"/><path d="M52.24,36.78h-1a7.55,7.55,0,0,1-7.55-7.54v-5.7A7.55,7.55,0,0,1,51.24,16h1a7.55,7.55,0,0,1,7.54,7.54v5.7A7.55,7.55,0,0,1,52.24,36.78ZM51.24,18a5.55,5.55,0,0,0-5.55,5.54v5.7a5.55,5.55,0,0,0,5.55,5.54h1a5.55,5.55,0,0,0,5.54-5.54v-5.7A5.55,5.55,0,0,0,52.24,18Z"/><path d="M61,61.88H45v-2H60V45.64a6.12,6.12,0,0,0-6.11-6.11H48.58a6,6,0,0,0-3.08.83l-1-1.73a8.14,8.14,0,0,1,4.09-1.1h5.31A8.12,8.12,0,0,1,62,45.64V60.88A1,1,0,0,1,61,61.88Z"/><rect height="13.32" width="2" x="7" y="47.55"/><path d="M12.8,44.65a1,1,0,0,1-.7-.29L7.29,39.55l1.42-1.41,4.09,4.09,4.06-4.06,1.42,1.42-4.77,4.77A1,1,0,0,1,12.8,44.65Z"/><rect height="17.23" width="2" x="11.77" y="43.65"/><path d="M51.23,44.65a1,1,0,0,1-.7-.29l-4.81-4.81,1.42-1.41,4.09,4.09,4.06-4.06,1.42,1.42-4.77,4.77A1,1,0,0,1,51.23,44.65Z"/><rect height="17.23" width="2" x="50.2" y="43.65"/><rect height="13.53" width="2" x="55" y="47.18"/><path d="M32.1,39.53h0a1,1,0,0,1-.8-.42l-4.92-6.8L28,31.14l4.13,5.71,4.37-5.73,1.59,1.21-5.18,6.8A1,1,0,0,1,32.1,39.53Z"/><rect height="22.18" width="2" x="31.1" y="38.53"/><rect height="19.04" width="2" x="23.25" y="41.83"/><rect height="19.04" width="2" x="39.08" y="41.83"/></svg>